<?xml version="1.0" encoding="UTF-8"?>
<svg xmlns="http://www.w3.org/2000/svg" xmlns:xlink="http://www.w3.org/1999/xlink" width="2100" height="2100" viewBox="0 0 2100 2100">
<path fill-rule="evenodd" fill="#ffffff" fill-opacity="1" d="M 488.488281 1611.527344 C 643.320312 1766.359375 830.378906 1843.964844 1050 1843.964844 C 1269.640625 1843.964844 1456.679688 1766.359375 1611.53125 1611.527344 C 1766.359375 1456.679688 1843.960938 1269.636719 1843.960938 1050 C 1843.960938 830.378906 1766.359375 643.320312 1611.53125 488.488281 C 1456.679688 333.640625 1269.640625 256.039062 1050 256.039062 C 830.378906 256.039062 643.320312 333.640625 488.488281 488.488281 C 333.640625 643.320312 256.035156 830.378906 256.035156 1050 C 256.035156 1269.636719 333.640625 1456.679688 488.488281 1611.527344 Z M 1051.101562 1062.449219 L 1050 1036.449219 C 1044.148438 933.960938 1006.429688 848.679688 936.160156 780.230469 C 866.246094 711.769531 780.597656 677.730469 679.921875 677.730469 C 573.773438 677.730469 489.585938 709.210938 426.621094 772.171875 C 363.660156 835.5 324.5 927.75 308.757812 1049.628906 C 320.824219 831.109375 395.507812 652.839844 533.5 515.199219 C 671.144531 377.570312 843.175781 308.761719 1050 308.761719 C 1251.699219 308.761719 1425.570312 380.5 1571.988281 524.359375 C 1718.039062 668.21875 1791.261719 839.519531 1791.261719 1038.28125 C 1791.261719 1146.273438 1755.75 1236.695312 1684.359375 1310.261719 C 1613.359375 1383.480469 1525.488281 1420.078125 1421.179688 1420.078125 C 1320.148438 1420.078125 1234.480469 1386.039062 1164.210938 1317.957031 C 1093.570312 1249.859375 1055.871094 1164.574219 1051.101562 1062.449219 Z M 785.351562 1050 C 785.351562 1078.558594 775.09375 1103.4375 754.234375 1124.679688 C 733.738281 1145.90625 708.839844 1156.527344 680.652344 1156.527344 C 651.378906 1156.527344 626.113281 1146.273438 605.621094 1125.410156 C 584.761719 1104.550781 574.503906 1079.289062 574.503906 1050 C 574.503906 1020.710938 584.761719 995.460938 605.621094 974.601562 C 626.113281 953.730469 651.378906 943.488281 680.652344 943.488281 C 709.574219 943.488281 734.472656 953.730469 754.964844 974.601562 C 775.09375 995.460938 785.351562 1020.710938 785.351562 1050 "/>
<path fill-rule="evenodd" fill="#ffffff" fill-opacity="1" d="M 1345.769531 1125.410156 C 1366.28125 1146.273438 1391.519531 1156.527344 1420.808594 1156.527344 C 1449 1156.527344 1473.878906 1146.273438 1494.378906 1125.410156 C 1515.261719 1104.550781 1525.488281 1079.289062 1525.488281 1050 C 1525.488281 1020.710938 1515.261719 995.460938 1495.128906 974.601562 C 1474.621094 953.730469 1449.730469 943.488281 1420.808594 943.488281 C 1391.519531 943.488281 1366.28125 953.730469 1345.769531 974.601562 C 1324.910156 995.460938 1314.648438 1020.710938 1314.648438 1050 C 1314.648438 1079.289062 1324.910156 1104.550781 1345.769531 1125.410156 "/>
</svg>